<svg width="155" height="159" viewBox="0 0 155 159" xmlns="http://www.w3.org/2000/svg"
  fill="currentColor">
  <path
    d="M64.7552 100.594C65.6022 100.848 66.9259 99.4279 69.8339 95.2115C76.5762 85.2766 82.1745 73.5959 85.1881 62.97L86.5988 58.1306L90.6747 58.4461C98.6389 58.9715 108.069 57.6397 117.119 54.7333C124.518 52.3861 132.673 47.6341 135.696 43.9201C135.981 43.5805 135.781 45.0523 135.297 47.1692C134.388 50.9751 134.42 52.318 135.369 53.4323C136.503 54.7901 137.287 53.419 139.513 46.3541C140.755 42.4434 142.326 38.3374 143.115 37.0509C143.884 35.7316 144.583 34.3657 144.628 33.9895C144.821 32.9595 143.87 31.5397 142.982 31.4403C142.554 31.3811 140.204 32.3879 137.289 33.9397C131.555 36.8998 129.425 37.6048 123.734 38.4405C121.461 38.7467 119.377 39.1622 119.082 39.3327C117.343 40.3367 122.358 42.1274 126.11 41.7984C127.529 41.6793 129.694 41.2608 130.945 40.8443C132.226 40.411 133.316 40.1758 133.391 40.3071C133.448 40.4055 132.757 41.3297 131.798 42.3208C129.095 45.1499 122.486 48.7907 116.639 50.6354C110.572 52.5631 104.732 53.7473 99.4921 54.1429C95.096 54.4935 87.6302 54.2928 87.3461 53.8006C87.2703 53.6694 87.1701 52.2835 87.0926 50.7095C87.0341 49.1683 86.8605 47.1248 86.6852 46.215C85.1999 38.1865 79.602 33.1888 72.4634 33.4117C70.2457 33.5109 69.26 33.7737 67.1462 34.8191C64.0328 36.3979 62.7661 37.698 61.9503 40.2252C60.8053 43.7737 62.6213 47.98 66.6838 51.1518C69.3717 53.2311 72.7786 54.8127 78.0525 56.3615L82.7367 57.7306L81.704 61.1705C79.2198 69.3033 74.2144 80.1166 68.1879 90.382C63.9842 97.5826 63.4115 98.7882 63.9798 99.7725C64.2071 100.166 64.5708 100.569 64.7588 100.591L64.7552 100.594ZM65.231 41.7484C65.4244 38.7492 68.3456 36.4502 72.2408 36.3013C79.1323 35.9536 83.6437 41.7974 83.454 50.7978L83.3993 53.2793L81.7912 53.0703C79.3461 52.7758 72.8303 50.3642 70.5212 48.9411C67.0082 46.7209 65.0887 44.1541 65.2331 41.752L65.231 41.7484Z"
  />
  <path
    d="M20.9701 90.138C21.6907 89.1509 22.7127 88.6393 24.036 88.6032C25.3722 88.5764 26.6684 89.0216 27.9247 89.9387C28.899 90.6499 29.5103 91.4007 29.7586 92.1912C30.0197 92.991 29.8789 93.7626 29.3361 94.5062C28.915 95.083 28.426 95.4433 27.8691 95.587C27.3251 95.7401 26.8159 95.6435 26.3416 95.2972C26.1621 95.1662 26.0188 95.0125 25.9118 94.8361C25.8176 94.6691 25.7642 94.4729 25.7518 94.2477C26.1205 94.281 26.494 94.2 26.8725 94.0047C27.2637 93.8187 27.581 93.559 27.8243 93.2257C28.1238 92.8155 28.2313 92.4125 28.1468 92.0168C28.0717 91.6082 27.8034 91.2355 27.3419 90.8986C26.7906 90.4962 26.2425 90.3318 25.6974 90.4055C25.1651 90.4886 24.6978 90.8058 24.2954 91.357C23.9679 91.8057 23.7697 92.3193 23.701 92.898C23.6417 93.4639 23.7486 94.3672 24.0218 95.6082C24.3888 97.232 24.4939 98.4878 24.3371 99.3755C24.1897 100.25 23.8258 101.085 23.2456 101.88C22.1788 103.342 20.8208 104.138 19.1717 104.271C17.5226 104.403 15.9097 103.894 14.3329 102.743C13.0766 101.826 12.2937 100.812 11.9841 99.7018C11.6745 98.5915 11.9034 97.5108 12.6708 96.4596C13.3446 95.5366 14.1723 94.9814 15.154 94.7942C16.1358 94.6069 17.0176 94.7987 17.7996 95.3695C18.2867 95.7251 18.5999 96.1306 18.7391 96.5859C18.8877 97.0285 18.8297 97.4578 18.5653 97.8739C17.8987 97.3873 17.2369 97.1498 16.5799 97.1615C15.9357 97.1825 15.4077 97.475 14.996 98.0391C14.6029 98.5775 14.4467 99.1414 14.5273 99.7308C14.608 100.32 14.9303 100.821 15.4944 101.233C16.161 101.719 16.8678 101.882 17.615 101.72C18.3621 101.558 19.0211 101.085 19.5919 100.304C20.0318 99.701 20.3183 99.0259 20.4515 98.2781C20.5847 97.5304 20.5651 96.3862 20.3928 94.8455C20.2226 93.4636 20.1841 92.453 20.2775 91.8137C20.393 91.1709 20.6239 90.6124 20.9701 90.138ZM28.6902 97.8666L29.3248 98.3298L31.8388 96.0974L34.9655 97.7903L32.0938 100.351L33.2475 101.193L32.5322 101.85L31.3785 101.008L25.9366 105.878C25.8267 105.975 25.728 106.07 25.6403 106.163C25.5619 106.244 25.4853 106.335 25.4105 106.438C25.2233 106.694 25.1453 106.922 25.1765 107.122C25.2298 107.318 25.3975 107.519 25.6795 107.725C26.0384 107.987 26.4904 108.081 27.0355 108.007C27.59 107.921 28.1266 107.683 28.6454 107.296L29.453 107.885C28.1912 108.752 26.9942 109.235 25.8622 109.332C24.7301 109.429 23.7154 109.15 22.818 108.495C22.177 108.027 21.8157 107.459 21.7341 106.79C21.6746 106.118 21.9116 105.416 22.445 104.685C22.5666 104.519 22.7151 104.342 22.8905 104.156C23.0752 103.957 23.2821 103.754 23.5112 103.548L28.6095 98.9867L27.9749 98.5235L28.6902 97.8666ZM38.7475 106.564L38.6492 106.699L39.6047 105.834L42.3737 107.856L36.2165 113.383C36.1066 113.479 36.0079 113.574 35.9202 113.668C35.8418 113.748 35.7652 113.839 35.6904 113.942C35.4845 114.224 35.3942 114.482 35.4194 114.717C35.454 114.939 35.606 115.148 35.8752 115.344C36.2085 115.588 36.622 115.654 37.1158 115.543C37.619 115.419 38.1645 115.129 38.7522 114.674L39.5599 115.263C38.2887 116.143 37.1063 116.646 36.0126 116.771C34.9284 116.884 33.9568 116.626 33.0979 115.999C32.5467 115.597 32.2167 115.12 32.108 114.569C32.0121 114.028 32.1444 113.456 32.5049 112.855C31.677 113.154 30.9119 113.274 30.2095 113.213C29.5199 113.161 28.8995 112.934 28.3483 112.532C27.5535 111.952 27.1219 111.224 27.0534 110.349C26.9978 109.483 27.3303 108.556 28.0509 107.569C28.5749 106.851 29.2313 106.181 30.0201 105.558C30.8089 104.935 31.6295 104.444 32.482 104.083C33.5085 103.673 34.4808 103.499 35.3991 103.56C36.3267 103.608 37.1623 103.904 37.9058 104.447C38.4058 104.812 38.7248 105.182 38.863 105.558C39.0106 105.921 38.9721 106.257 38.7475 106.564ZM37.8866 107.38C38.0269 107.188 38.0781 106.97 38.04 106.726C38.0113 106.469 37.8752 106.252 37.6316 106.074C36.9265 105.559 35.8679 105.69 34.4557 106.467C33.0563 107.254 31.9355 108.224 31.0933 109.378C30.7283 109.878 30.5228 110.307 30.4766 110.666C30.4398 111.013 30.6009 111.317 30.9598 111.579C31.2931 111.823 31.7306 111.896 32.2722 111.8C32.8267 111.714 33.333 111.465 33.7911 111.052L37.8866 107.38ZM38.2285 119.568L35.4596 117.546L44.5165 109.42L47.2855 111.441L46.1652 112.451C47.0755 112.388 47.7471 112.397 48.1799 112.477C48.6348 112.554 49.0289 112.714 49.3622 112.957C49.7597 113.247 49.9772 113.622 50.0149 114.082C50.0619 114.529 49.9357 114.958 49.6363 115.368C49.3461 115.765 48.9746 116.005 48.5217 116.087C48.0688 116.169 47.6373 116.061 47.227 115.761C47.0091 115.602 46.8735 115.424 46.8201 115.228C46.7796 115.041 46.8507 114.769 47.0334 114.411C47.1447 114.178 47.1934 114.017 47.1795 113.928C47.1751 113.827 47.1279 113.743 47.0382 113.678C46.8203 113.519 46.5824 113.414 46.3246 113.363C46.0668 113.313 45.659 113.319 45.1011 113.384L38.2285 119.568ZM51.1116 114.234L51.7462 114.698L54.2602 112.465L57.3869 114.158L54.5152 116.719L55.6689 117.561L54.9536 118.218L53.7999 117.376L48.358 122.246C48.2481 122.343 48.1494 122.438 48.0617 122.531C47.9833 122.611 47.9067 122.703 47.8319 122.805C47.6447 123.062 47.5667 123.29 47.5979 123.489C47.6512 123.685 47.8189 123.887 48.1009 124.092C48.4598 124.354 48.9118 124.449 49.4569 124.375C50.0114 124.288 50.548 124.051 51.0668 123.664L51.8744 124.253C50.6126 125.12 49.4156 125.602 48.2836 125.7C47.1515 125.797 46.1368 125.518 45.2394 124.863C44.5984 124.395 44.2371 123.826 44.1555 123.158C44.096 122.485 44.333 121.784 44.8664 121.053C44.988 120.887 45.1365 120.71 45.3119 120.524C45.4966 120.324 45.7036 120.122 45.9326 119.916L51.0309 115.354L50.3963 114.891L51.1116 114.234ZM58.8899 131.497C59.0584 131.266 59.2946 130.996 59.5985 130.688C59.9153 130.388 60.4395 129.926 61.1711 129.301C61.884 128.701 62.383 128.26 62.6683 127.977C62.9535 127.694 63.1757 127.443 63.3348 127.225C63.5687 126.905 63.6824 126.614 63.6759 126.354C63.6822 126.103 63.5699 125.893 63.3392 125.725C63.0315 125.5 62.5946 125.466 62.0283 125.623C61.4843 125.776 61.0223 126.018 60.6425 126.35L54.7535 131.631L51.9845 129.61L64.3182 118.569L67.4448 120.262L62.869 124.35C63.4515 124.225 63.9942 124.209 64.497 124.301C64.9998 124.392 65.4691 124.598 65.9049 124.916C66.5844 125.412 66.9743 125.981 67.0746 126.624C67.175 127.268 66.9678 127.942 66.4531 128.647C66.2379 128.942 65.9421 129.266 65.5657 129.62C65.2115 129.971 64.6277 130.488 63.8143 131.171C63.1704 131.703 62.7245 132.085 62.4767 132.317C62.2289 132.549 62.0395 132.755 61.9085 132.934C61.712 133.203 61.6263 133.455 61.6516 133.69C61.6862 133.912 61.8317 134.116 62.0881 134.303C62.4086 134.537 62.7637 134.629 63.1536 134.58C63.5434 134.53 64.1384 134.267 64.9386 133.79L65.7462 134.38C64.4657 135.272 63.3154 135.798 62.2952 135.958C61.2878 136.126 60.3803 135.916 59.5727 135.326C58.8548 134.802 58.4376 134.203 58.3209 133.528C58.2136 132.84 58.4033 132.163 58.8899 131.497ZM75.1843 134.372C74.4076 135.436 73.2932 136.047 71.8413 136.206C70.3987 136.351 69.0515 136.016 67.7997 135.201C67.6278 135.409 67.4933 135.567 67.3963 135.673C67.3214 135.775 67.2559 135.865 67.1998 135.942C66.7693 136.532 66.5613 137.018 66.5758 137.402C66.6031 137.796 66.8795 138.184 67.4051 138.568C68.0076 139.008 68.6571 139.275 69.3536 139.371C70.0723 139.464 71.0299 139.377 72.2264 139.11L72.8802 139.588C71.257 140.25 69.7943 140.558 68.4921 140.511C67.1993 140.451 66.0337 140.043 64.9953 139.285C64.0082 138.564 63.4455 137.76 63.307 136.873C63.1814 135.995 63.4882 135.05 64.2275 134.037C64.761 133.307 65.4425 132.615 66.2722 131.963C67.1019 131.311 67.9429 130.805 68.7954 130.445C69.8312 130.022 70.8164 129.857 71.751 129.95C72.7077 130.039 73.5962 130.383 74.4167 130.982C75.1217 131.497 75.535 132.034 75.6566 132.595C75.8003 133.151 75.6428 133.744 75.1843 134.372ZM73.8265 132.113C73.3907 131.795 72.663 131.863 71.6435 132.318C70.6461 132.769 69.6407 133.46 68.6274 134.39C69.4083 134.882 70.3037 135.014 71.3135 134.789C72.3454 134.56 73.1515 134.048 73.7317 133.253C73.9283 132.983 74.0348 132.757 74.0515 132.572C74.0682 132.388 73.9932 132.235 73.8265 132.113ZM71.7668 144.051L68.9978 142.03L78.0547 133.903L80.8237 135.924L79.7034 136.934C80.6137 136.872 81.2853 136.88 81.7181 136.96C82.173 137.037 82.5672 137.197 82.9005 137.44C83.2979 137.731 83.5154 138.106 83.5531 138.565C83.6001 139.012 83.4739 139.441 83.1745 139.851C82.8844 140.249 82.5129 140.488 82.0599 140.57C81.607 140.652 81.1755 140.544 80.7653 140.244C80.5473 140.085 80.4117 139.908 80.3584 139.711C80.3179 139.525 80.3889 139.252 80.5716 138.894C80.6829 138.661 80.7316 138.5 80.7178 138.412C80.7133 138.31 80.6662 138.226 80.5764 138.161C80.3585 138.002 80.1206 137.897 79.8628 137.846C79.605 137.796 79.1972 137.803 78.6393 137.867L71.7668 144.051ZM89.7751 145.023C88.9984 146.087 87.884 146.699 86.4321 146.857C84.9895 147.003 83.6424 146.668 82.3905 145.852C82.2186 146.061 82.0842 146.218 81.9871 146.324C81.9122 146.427 81.8467 146.516 81.7906 146.593C81.3601 147.183 81.1521 147.67 81.1666 148.054C81.1939 148.447 81.4703 148.836 81.9959 149.219C82.5985 149.659 83.2479 149.927 83.9444 150.023C84.6631 150.115 85.6207 150.028 86.8173 149.762L87.4711 150.239C85.8479 150.901 84.3852 151.209 83.083 151.162C81.7901 151.103 80.6245 150.694 79.5861 149.936C78.599 149.215 78.0363 148.412 77.8978 147.525C77.7722 146.647 78.079 145.702 78.8183 144.689C79.3518 143.958 80.0333 143.267 80.863 142.615C81.6927 141.963 82.5338 141.457 83.3862 141.096C84.4221 140.674 85.4072 140.508 86.3418 140.601C87.2985 140.69 88.1871 141.034 89.0075 141.633C89.7126 142.148 90.1259 142.686 90.2474 143.246C90.3911 143.803 90.2337 144.395 89.7751 145.023ZM88.4173 142.765C87.9815 142.447 87.2538 142.515 86.2343 142.969C85.2369 143.42 84.2315 144.111 83.2182 145.041C83.9991 145.533 84.8945 145.666 85.9043 145.44C86.9362 145.211 87.7423 144.699 88.3225 143.904C88.5191 143.635 88.6257 143.408 88.6423 143.224C88.659 143.039 88.584 142.886 88.4173 142.765Z"
  />
</svg>
