<svg width="512" height="512" viewBox="0 0 512 512" fill="none" xmlns="http://www.w3.org/2000/svg">
  <g clip-path="url(#clip0_2655_22)">
    <rect width="512" height="512" fill="#BFC2AF" />
    <g filter="url(#filter0_ddddddddii_2655_22)">
      <rect x="91.3987" y="187.679" width="329.202" height="136.642" rx="68.3209" fill="#373132"
        shape-rendering="crispEdges" />
      <path
        d="M159.345 265.993V232.868H181.278V238.642H166.349V246.535H179.822V252.31H166.349V265.993H159.345ZM195.261 266.479C192.748 266.479 190.575 265.945 188.742 264.877C186.92 263.799 185.513 262.3 184.521 260.381C183.529 258.451 183.033 256.213 183.033 253.668C183.033 251.102 183.529 248.859 184.521 246.94C185.513 245.01 186.92 243.511 188.742 242.443C190.575 241.365 192.748 240.826 195.261 240.826C197.773 240.826 199.94 241.365 201.763 242.443C203.596 243.511 205.008 245.01 206 246.94C206.993 248.859 207.489 251.102 207.489 253.668C207.489 256.213 206.993 258.451 206 260.381C205.008 262.3 203.596 263.799 201.763 264.877C199.94 265.945 197.773 266.479 195.261 266.479ZM195.293 261.141C196.436 261.141 197.39 260.817 198.156 260.17C198.921 259.513 199.498 258.618 199.887 257.486C200.286 256.353 200.485 255.065 200.485 253.62C200.485 252.175 200.286 250.886 199.887 249.754C199.498 248.622 198.921 247.727 198.156 247.069C197.39 246.411 196.436 246.083 195.293 246.083C194.139 246.083 193.169 246.411 192.382 247.069C191.605 247.727 191.018 248.622 190.619 249.754C190.23 250.886 190.036 252.175 190.036 253.62C190.036 255.065 190.23 256.353 190.619 257.486C191.018 258.618 191.605 259.513 192.382 260.17C193.169 260.817 194.139 261.141 195.293 261.141ZM223.194 266.479C220.649 266.479 218.46 265.939 216.627 264.861C214.805 263.772 213.403 262.262 212.422 260.332C211.451 258.402 210.966 256.181 210.966 253.668C210.966 251.124 211.457 248.892 212.438 246.972C213.43 245.042 214.837 243.538 216.659 242.459C218.482 241.37 220.649 240.826 223.162 240.826C225.329 240.826 227.227 241.219 228.855 242.007C230.483 242.794 231.772 243.899 232.721 245.322C233.67 246.746 234.193 248.417 234.29 250.336H227.787C227.604 249.096 227.119 248.099 226.332 247.344C225.555 246.579 224.536 246.196 223.275 246.196C222.207 246.196 221.275 246.487 220.477 247.069C219.689 247.641 219.075 248.476 218.633 249.576C218.191 250.676 217.97 252.008 217.97 253.571C217.97 255.156 218.185 256.504 218.617 257.615C219.059 258.726 219.679 259.572 220.477 260.154C221.275 260.737 222.207 261.028 223.275 261.028C224.062 261.028 224.768 260.866 225.394 260.542C226.03 260.219 226.553 259.75 226.963 259.135C227.383 258.51 227.658 257.76 227.787 256.887H234.29C234.182 258.785 233.664 260.456 232.737 261.901C231.82 263.335 230.553 264.457 228.936 265.265C227.318 266.074 225.404 266.479 223.194 266.479ZM254.633 255.415V241.149H261.523V265.993H254.908V261.481H254.649C254.088 262.936 253.156 264.106 251.851 264.99C250.557 265.875 248.977 266.317 247.112 266.317C245.451 266.317 243.99 265.939 242.729 265.185C241.467 264.43 240.48 263.357 239.769 261.966C239.068 260.575 238.712 258.909 238.701 256.968V241.149H245.592V255.739C245.602 257.205 245.996 258.364 246.772 259.216C247.549 260.068 248.589 260.494 249.894 260.494C250.724 260.494 251.501 260.305 252.223 259.928C252.945 259.54 253.528 258.968 253.97 258.213C254.423 257.459 254.644 256.526 254.633 255.415ZM287.706 248.234L281.398 248.622C281.29 248.083 281.058 247.598 280.702 247.166C280.346 246.724 279.877 246.374 279.295 246.115C278.724 245.845 278.039 245.711 277.241 245.711C276.173 245.711 275.273 245.937 274.54 246.39C273.806 246.832 273.44 247.425 273.44 248.169C273.44 248.762 273.677 249.264 274.152 249.673C274.626 250.083 275.44 250.412 276.594 250.66L281.09 251.566C283.506 252.062 285.307 252.86 286.493 253.959C287.679 255.059 288.272 256.504 288.272 258.294C288.272 259.922 287.792 261.351 286.832 262.58C285.883 263.81 284.579 264.769 282.918 265.46C281.268 266.139 279.365 266.479 277.209 266.479C273.92 266.479 271.299 265.794 269.348 264.424C267.407 263.044 266.269 261.168 265.935 258.796L272.712 258.44C272.917 259.443 273.413 260.208 274.2 260.737C274.987 261.254 275.995 261.513 277.225 261.513C278.432 261.513 279.403 261.281 280.136 260.817C280.88 260.343 281.258 259.734 281.268 258.99C281.258 258.364 280.993 257.852 280.476 257.453C279.958 257.043 279.16 256.731 278.082 256.515L273.78 255.658C271.353 255.173 269.547 254.332 268.361 253.135C267.186 251.938 266.598 250.412 266.598 248.557C266.598 246.961 267.029 245.587 267.892 244.433C268.765 243.279 269.989 242.389 271.564 241.764C273.149 241.139 275.003 240.826 277.128 240.826C280.265 240.826 282.735 241.489 284.536 242.815C286.347 244.142 287.404 245.948 287.706 248.234Z"
        fill="white" />
      <circle cx="352.28" cy="249.493" r="17.8936" fill="#EA3300" stroke="#EA3300"
        stroke-width="3.25337" />
      <g style="mix-blend-mode:plus-lighter" opacity="0.8" filter="url(#filter1_f_2655_22)">
        <circle cx="352.28" cy="249.493" r="29.2804" fill="#EA3300" />
        <circle cx="352.28" cy="249.493" r="27.6537" stroke="#EA3300" stroke-width="3.25337" />
      </g>
      <g style="mix-blend-mode:plus-lighter" filter="url(#filter2_f_2655_22)">
        <circle cx="352.28" cy="249.493" r="13.0135" fill="#BA2900" />
        <circle cx="352.28" cy="249.493" r="11.3868" stroke="#EA3300" stroke-width="3.25337" />
      </g>
    </g>
  </g>
  <defs>
    <filter id="filter0_ddddddddii_2655_22" x="-168.871" y="187.679" width="849.742"
      height="722.249" filterUnits="userSpaceOnUse" color-interpolation-filters="sRGB">
      <feFlood flood-opacity="0" result="BackgroundImageFix" />
      <feColorMatrix in="SourceAlpha" type="matrix"
        values="0 0 0 0 0 0 0 0 0 0 0 0 0 0 0 0 0 0 127 0" result="hardAlpha" />
      <feOffset dy="9.00292" />
      <feGaussianBlur stdDeviation="3.60117" />
      <feColorMatrix type="matrix" values="0 0 0 0 0 0 0 0 0 0 0 0 0 0 0 0 0 0 0.1197 0" />
      <feBlend mode="normal" in2="BackgroundImageFix" result="effect1_dropShadow_2655_22" />
      <feColorMatrix in="SourceAlpha" type="matrix"
        values="0 0 0 0 0 0 0 0 0 0 0 0 0 0 0 0 0 0 127 0" result="hardAlpha" />
      <feOffset dy="21.6353" />
      <feGaussianBlur stdDeviation="8.65411" />
      <feColorMatrix type="matrix" values="0 0 0 0 0 0 0 0 0 0 0 0 0 0 0 0 0 0 0.1283 0" />
      <feBlend mode="normal" in2="effect1_dropShadow_2655_22" result="effect2_dropShadow_2655_22" />
      <feColorMatrix in="SourceAlpha" type="matrix"
        values="0 0 0 0 0 0 0 0 0 0 0 0 0 0 0 0 0 0 127 0" result="hardAlpha" />
      <feOffset dy="40.7373" />
      <feGaussianBlur stdDeviation="16.2949" />
      <feColorMatrix type="matrix" values="0 0 0 0 0 0 0 0 0 0 0 0 0 0 0 0 0 0 0.135 0" />
      <feBlend mode="normal" in2="effect2_dropShadow_2655_22" result="effect3_dropShadow_2655_22" />
      <feColorMatrix in="SourceAlpha" type="matrix"
        values="0 0 0 0 0 0 0 0 0 0 0 0 0 0 0 0 0 0 127 0" result="hardAlpha" />
      <feOffset dy="72.6684" />
      <feGaussianBlur stdDeviation="29.0674" />
      <feColorMatrix type="matrix" values="0 0 0 0 0 0 0 0 0 0 0 0 0 0 0 0 0 0 0.1417 0" />
      <feBlend mode="normal" in2="effect3_dropShadow_2655_22" result="effect4_dropShadow_2655_22" />
      <feColorMatrix in="SourceAlpha" type="matrix"
        values="0 0 0 0 0 0 0 0 0 0 0 0 0 0 0 0 0 0 127 0" result="hardAlpha" />
      <feOffset dy="135.918" />
      <feGaussianBlur stdDeviation="54.3673" />
      <feColorMatrix type="matrix" values="0 0 0 0 0 0 0 0 0 0 0 0 0 0 0 0 0 0 0.1503 0" />
      <feBlend mode="normal" in2="effect4_dropShadow_2655_22" result="effect5_dropShadow_2655_22" />
      <feColorMatrix in="SourceAlpha" type="matrix"
        values="0 0 0 0 0 0 0 0 0 0 0 0 0 0 0 0 0 0 127 0" result="hardAlpha" />
      <feOffset dy="325.337" />
      <feGaussianBlur stdDeviation="130.135" />
      <feColorMatrix type="matrix" values="0 0 0 0 0 0 0 0 0 0 0 0 0 0 0 0 0 0 0.15 0" />
      <feBlend mode="normal" in2="effect5_dropShadow_2655_22" result="effect6_dropShadow_2655_22" />
      <feColorMatrix in="SourceAlpha" type="matrix"
        values="0 0 0 0 0 0 0 0 0 0 0 0 0 0 0 0 0 0 127 0" result="hardAlpha" />
      <feOffset dy="9.76012" />
      <feGaussianBlur stdDeviation="4.88006" />
      <feComposite in2="hardAlpha" operator="out" />
      <feColorMatrix type="matrix" values="0 0 0 0 0 0 0 0 0 0 0 0 0 0 0 0 0 0 0.14 0" />
      <feBlend mode="normal" in2="effect6_dropShadow_2655_22" result="effect7_dropShadow_2655_22" />
      <feColorMatrix in="SourceAlpha" type="matrix"
        values="0 0 0 0 0 0 0 0 0 0 0 0 0 0 0 0 0 0 127 0" result="hardAlpha" />
      <feOffset dy="9.00292" />
      <feGaussianBlur stdDeviation="3.60117" />
      <feColorMatrix type="matrix" values="0 0 0 0 0 0 0 0 0 0 0 0 0 0 0 0 0 0 0.1197 0" />
      <feBlend mode="normal" in2="effect7_dropShadow_2655_22" result="effect8_dropShadow_2655_22" />
      <feBlend mode="normal" in="SourceGraphic" in2="effect8_dropShadow_2655_22" result="shape" />
      <feColorMatrix in="SourceAlpha" type="matrix"
        values="0 0 0 0 0 0 0 0 0 0 0 0 0 0 0 0 0 0 127 0" result="hardAlpha" />
      <feOffset dy="-6.50675" />
      <feComposite in2="hardAlpha" operator="arithmetic" k2="-1" k3="1" />
      <feColorMatrix type="matrix"
        values="0 0 0 0 0.111654 0 0 0 0 0.111654 0 0 0 0 0.111654 0 0 0 1 0" />
      <feBlend mode="normal" in2="shape" result="effect9_innerShadow_2655_22" />
      <feColorMatrix in="SourceAlpha" type="matrix"
        values="0 0 0 0 0 0 0 0 0 0 0 0 0 0 0 0 0 0 127 0" result="hardAlpha" />
      <feOffset dy="3.25337" />
      <feComposite in2="hardAlpha" operator="arithmetic" k2="-1" k3="1" />
      <feColorMatrix type="matrix" values="0 0 0 0 1 0 0 0 0 1 0 0 0 0 1 0 0 0 0.3 0" />
      <feBlend mode="normal" in2="effect9_innerShadow_2655_22" result="effect10_innerShadow_2655_22" />
    </filter>
    <filter id="filter1_f_2655_22" x="277.453" y="174.666" width="149.655" height="149.655"
      filterUnits="userSpaceOnUse" color-interpolation-filters="sRGB">
      <feFlood flood-opacity="0" result="BackgroundImageFix" />
      <feBlend mode="normal" in="SourceGraphic" in2="BackgroundImageFix" result="shape" />
      <feGaussianBlur stdDeviation="22.7736" result="effect1_foregroundBlur_2655_22" />
    </filter>
    <filter id="filter2_f_2655_22" x="332.76" y="229.973" width="39.0405" height="39.0405"
      filterUnits="userSpaceOnUse" color-interpolation-filters="sRGB">
      <feFlood flood-opacity="0" result="BackgroundImageFix" />
      <feBlend mode="normal" in="SourceGraphic" in2="BackgroundImageFix" result="shape" />
      <feGaussianBlur stdDeviation="3.25337" result="effect1_foregroundBlur_2655_22" />
    </filter>
    <clipPath id="clip0_2655_22">
      <rect width="512" height="512" fill="white" />
    </clipPath>
  </defs>
</svg>
